<mxfile host="app.diagrams.net" modified="2024-02-14T19:19:01.514Z" agent="Mozilla/5.0 (Macintosh; Intel Mac OS X 10_15_7) AppleWebKit/537.36 (KHTML, like Gecko) Chrome/116.0.0.0 Safari/537.36" version="23.1.4" etag="44HvLGYFY_8KkOAW7bQH" type="github">
  <diagram name="第 1 页" id="lUc0dhW2PH9hP8fK2Isd">
    <mxGraphModel>
      <root>
        <mxCell id="0" />
        <mxCell id="1" parent="0" />
      </root>
    </mxGraphModel>
  </diagram>
</mxfile>
